<svg version="1.2" xmlns="http://www.w3.org/2000/svg" viewBox="0 0 512 512"><style></style><path  d="m243.2 512.1c-46.5-3.2-83.1-14.4-119.1-36.3-37-22.4-65.4-50.9-87.8-87.8-19.6-32.2-31-66.6-35.3-106.2-1.3-12.5-1.3-43.1 0-54.1 5.2-42.2 19.3-80.1 43.1-115.8 11.2-16.9 30.2-38.4 38-43.1 13.6-8.1 28.9-6.1 39.4 5.3 7.5 8.1 10.6 17.8 8.7 27.4-1.6 8.1-4.5 12.9-13.5 22.6-18.9 20.4-31.4 40.1-40.3 63.7-8.5 22.7-13.6 54-12.4 75.9 2.4 41.6 15.3 77.9 38.6 108.8 7.9 10.6 26.4 29 36.8 37 46.7 35.1 107.1 47 165 32.5 34.4-8.7 61.9-24.4 87.5-49.9 16.9-16.9 27.6-31.9 37.2-52.2 20.9-43.9 24.6-96.6 10-143.3-12.7-40.3-41.5-77.9-77.7-101.2-18.9-12.2-40.6-21.1-63.9-26.5-4.7-1.1-8.7-1.9-9-1.9-0.2 0-0.4 7.5-0.4 16.6 0 19.3-0.9 23.8-5.5 30.7-3.4 5-9.5 9.8-14.6 11.7-5.7 2-14.7 2.3-20.8 0.8-9.6-2.4-17.9-9.9-21.3-19.2-1.5-3.9-1.6-6.5-1.6-43.8 0-37.1 0.1-40 1.6-43.8 3-8.3 9.2-14.7 17.9-18.4 6.7-2.8 33.7-1.8 56.3 2.2 69.3 12.1 130.2 51.7 168.6 109.7 29.4 44.1 43.2 89.8 43.3 142.2 0 46-10.6 86.9-32.8 126.3-32.1 57-86.4 100.6-148.7 119.4-26.9 8.1-62.2 12.4-87.3 10.7z"/><path  d="m281.6 298.7c-0.6-0.2-4.5-3.9-10.3-9.7l-9.3-9.2-4.1 2.1c-19.6 10.2-19.1 9.9-20.6 10.1-0.8 0-1.8-0.1-2.3-0.4-1.5-0.6-7.3-6.7-7.8-8-0.4-1.3-0.3-2.3 0.3-3.7 0.8-1.5 50.2-51 51.9-51.9 1.4-0.8 2.6-1 3.9-0.5 1.3 0.4 7.4 6.4 8 7.8 1 2.1 0.6 3.1-5.2 14.3-3 5.6-5.6 10.7-6 11.4l-0.7 1.3 9.2 9.2c5.2 5.2 9.4 9.6 9.6 10.2 0.6 1.2 0.6 2 0 3.6-0.3 1-1.5 2.3-5.9 6.7-6.7 6.8-8.1 7.6-10.7 6.7zm-97.3-81.6c-44.9-44.8-45.4-45.4-46.3-47.5-0.7-1.8-1-3.3-2.3-14.8-1-9.1-1.4-13.2-1.2-14.3 0.4-2.7 2.9-5.3 5.6-5.7 0.9-0.2 5.2 0.2 14.2 1.2 11.7 1.3 13.2 1.6 15 2.3 2.1 0.9 2.6 1.4 47.5 46.3l45.4 45.3-8.1 8.2c-4.5 4.5-11.8 11.8-16.3 16.3l-8.2 8.1z"/></svg>
