<svg version="1.2" xmlns="http://www.w3.org/2000/svg" viewBox="0 0 512 512" width="512" height="512"><defs><clipPath clipPathUnits="userSpaceOnUse" id="cp1"><path d="m243.2 512.11c-46.5-3.2-83.11-14.41-119.1-36.3-37-22.4-65.4-50.91-87.81-87.81-19.59-32.2-30.99-66.6-35.29-106.2-1.3-12.5-1.3-43.1 0-54.1 5.2-42.21 19.29-80.1 43.1-115.8 11.19-16.9 30.2-38.41 37.99-43.11 13.61-8.1 28.9-6.1 39.41 5.31 7.5 8.1 10.6 17.79 8.7 27.4-1.6 8.1-4.5 12.9-13.51 22.59-18.9 20.41-31.39 40.1-40.3 63.7-8.5 22.7-13.6 54.02-12.39 75.91 2.4 41.6 15.29 77.9 38.6 108.8 7.89 10.61 26.4 29.01 36.8 37.01 46.69 35.1 107.1 46.99 165 32.49 34.41-8.7 61.9-24.39 87.5-49.89 16.91-16.91 27.6-31.91 37.21-52.21 20.89-43.9 24.6-96.6 9.99-143.3-12.7-40.3-41.5-77.9-77.7-101.2-18.9-12.2-40.59-21.1-63.9-26.5-4.7-1.11-8.7-1.9-9-1.9-0.2 0-0.4 7.49-0.4 16.6 0 19.3-0.9 23.8-5.49 30.7-3.42 4.99-9.5 9.79-14.61 11.69-5.7 2.01-14.7 2.3-20.8 0.81-9.61-2.4-17.9-9.91-21.3-19.21-1.51-3.9-1.6-6.49-1.6-43.79 0-37.11 0.09-40.01 1.6-43.81 3-8.3 9.2-14.69 17.91-18.4 6.69-2.8 33.69-1.8 56.3 2.21 69.29 12.09 130.19 51.69 168.6 109.7 29.4 44.09 43.2 89.8 43.29 142.2 0 46-10.59 86.9-32.79 126.3-32.1 57-86.41 100.6-148.71 119.4-26.9 8.1-62.21 12.4-87.3 10.71zm38.41-213.41c-0.61-0.19-4.51-3.9-10.31-9.69l-9.3-9.21-4.11 2.09c-19.59 10.21-19.09 9.91-20.59 10.11-0.8 0-1.8-0.09-2.3-0.4-1.5-0.6-7.31-6.7-7.81-8-0.38-1.3-0.29-2.3 0.31-3.7 0.8-1.5 50.2-51 51.9-51.91 1.4-0.79 2.6-0.99 3.9-0.49 1.3 0.4 7.4 6.4 8 7.8 1 2.1 0.6 3.09-5.2 14.3-3 5.6-5.6 10.7-6 11.4l-0.7 1.3 9.2 9.19c5.2 5.2 9.4 9.61 9.61 10.21 0.59 1.21 0.59 2 0 3.61-0.31 0.99-1.5 2.3-5.91 6.69-6.7 6.8-8.1 7.6-10.69 6.7zm-97.31-81.6c-44.9-44.81-45.41-45.4-46.3-47.5-0.7-1.8-1.01-3.3-2.3-14.81-1-9.09-1.4-13.2-1.2-14.29 0.4-2.71 2.89-5.3 5.6-5.7 0.9-0.2 5.2 0.2 14.2 1.2 11.7 1.29 13.2 1.6 15 2.29 2.09 0.9 2.59 1.4 47.49 46.3l45.4 45.3-8.09 8.21c-4.5 4.5-11.81 11.8-16.3 16.3l-8.21 8.09z"/></clipPath></defs><style></style><g clip-path="url(#cp1)"><path fill-rule="evenodd" d="m243.2 512.2c-46.6-3.2-83.2-14.4-119.1-36.4-37-22.4-65.4-50.9-87.8-87.7-19.7-32.4-31-66.7-35.3-106.3-1.3-12.4-1.3-43.1 0-54.1 5.2-42.2 19.2-80.1 43.1-115.9 11.2-16.8 30.2-38.3 38-43 13.6-8.2 28.8-6.1 39.4 5.3 7.5 8 10.7 17.7 8.7 27.3-1.6 8.2-4.6 12.9-13.6 22.6-18.8 20.5-31.3 40.2-40.2 63.8-8.4 22.8-13.6 54-12.5 75.9 2.5 41.6 15.4 77.9 38.7 108.8 7.9 10.6 26.4 29 36.8 37.1 46.7 35 107.2 47 165 32.4 34.4-8.7 61.8-24.4 87.5-49.9 16.9-16.9 27.6-31.9 37.2-52.2 20.9-43.9 24.6-96.6 9.9-143.4-12.6-40.2-41.4-77.9-77.6-101.2-18.9-12.2-40.6-21.1-63.9-26.5-4.8-1.1-8.6-1.8-9.1-1.8-0.1 0-0.2 7.5-0.2 16.5 0 19.4-1 23.9-5.6 30.8-3.4 5-9.5 9.7-14.5 11.7-5.9 2-14.7 2.3-20.8 0.8-9.7-2.4-18.1-9.9-21.4-19.3-1.5-3.9-1.7-6.4-1.7-43.7 0-37.1 0.2-40 1.7-43.8 3.1-8.3 9.2-14.7 17.9-18.4 6.6-2.8 33.7-1.8 56.3 2.2 69.3 12.1 130.2 51.7 168.6 109.7 29.4 44.1 43.3 89.8 43.3 142.3 0 45.9-10.5 86.8-32.7 126.2-32.2 57-86.4 100.6-148.8 119.4-26.9 8.1-62.2 12.4-87.3 10.8zm38.5-213.4c-0.7-0.3-4.6-4.1-10.5-9.8l-9.2-9.2-4.1 2c-19.7 10.3-19.1 10-20.6 10.2-0.9 0-1.8 0-2.2-0.5-1.6-0.5-7.4-6.6-7.9-7.9-0.5-1.4-0.3-2.3 0.4-3.7 0.7-1.5 50.2-51 51.8-51.9 1.4-0.8 2.7-0.9 3.9-0.5 1.3 0.4 7.4 6.4 8.1 7.7 0.9 2.3 0.5 3.2-5.3 14.5-3.1 5.5-5.6 10.6-6 11.3l-0.7 1.3 9.2 9.1c5.3 5.3 9.4 9.7 9.6 10.3 0.6 1.2 0.6 1.9 0 3.6-0.3 1-1.4 2.4-5.9 6.7-6.6 6.8-8.2 7.6-10.6 6.8zm-97.4-81.7c-44.9-44.8-45.3-45.4-46.3-47.5-0.7-1.8-1-3.3-2.4-14.8-0.9-9.1-1.4-13.2-1.1-14.3 0.4-2.8 2.9-5.4 5.6-5.7 0.9-0.2 5.2 0.2 14.2 1.1 11.7 1.4 13.2 1.7 15 2.4 2.1 0.8 2.7 1.4 47.4 46.3l45.5 45.2-8.1 8.3c-4.5 4.5-11.8 11.8-16.3 16.3l-8.2 8.2z"/></g></svg>