<svg version="1.2" xmlns="http://www.w3.org/2000/svg" viewBox="0 0 512 512"><style></style><path  d="m381.4 510.8c-9.4-2.5-15.7-9-18.2-18.5-1-4.3-1.3-11.8-1.3-41.3v-36.1h-36c-39.6 0-42.9-0.3-50.1-5.2-5.1-3.5-8.2-8.3-9.9-15.3-1.4-5.5-1.4-6.4-0.1-11.7 1.7-6.9 5.7-13 10.5-15.9 7-4.5 10.6-4.9 49.6-4.9h36v-36c0-29.7 0.3-37 1.3-41.3 2.7-10 9.1-16.2 19.5-18.8 5.3-1.3 6.2-1.3 11.6 0 10.5 2.7 16.8 8.7 19.3 18.8 1.1 4.2 1.3 11.8 1.3 41.3v36h36.1c29.4 0 37 0.3 41.2 1.3 10.2 2.7 16.2 8.9 18.8 19.4 1.3 5.4 1.3 6.3-0.1 11.8-2.4 10.2-8.7 16.7-18.6 19.2-4.3 1.1-11.8 1.3-41.3 1.3h-36l-0.2 38.3c-0.4 43.6-0.4 43.3-7.7 50.9-6.4 6.6-16.5 9.2-25.7 6.7zm-337.5-17.3c-16-2.7-30.7-13.4-37.7-27.3-6.5-12.8-6.2-9.4-6.2-77.8 0-68-0.3-65 5.9-77.2 5.2-10.4 12-17.2 22.9-22.6 11.7-6 9-5.8 76.8-5.8 57.1 0 61.8 0.1 66.7 1.6 18.7 5.8 31.6 18.7 37.3 37.3 1.5 5 1.6 9.6 1.6 66.7 0 57.1-0.1 61.8-1.6 66.7-5.8 18.8-17.7 30.9-36.8 37.3-4.5 1.5-9.3 1.6-64.5 1.7-32.8 0.1-61.8-0.1-64.4-0.6zm-1.6-283.2c-20.2-4.4-34.4-17.7-40.7-38-1.5-4.9-1.6-9.6-1.6-66.7 0-57.6 0.1-61.8 1.7-66.7 5.9-18.8 18.5-31.6 37.2-37.3 4.9-1.5 9.6-1.6 67.2-1.6h61.8l5.7 2c15.9 5.8 25.3 13.7 31.8 26.7 6.4 12.9 6.4 13.8 6.1 80.6-0.3 54-0.4 59-1.9 63.5-6.3 18.8-18 30.5-36.8 36.7-4.5 1.6-9.4 1.7-65 1.9-47.7 0.1-61.2-0.1-65.5-1.1zm282.9 0c-18.8-4.1-32.7-16-39.3-33.7-3.3-9.1-3.6-14.6-3.3-75.1 0.3-64.7 0-60.8 6.6-74.1 5.8-11.6 18.2-21.4 32.5-25.8 5-1.5 9.6-1.6 66.7-1.6 57.1 0 61.8 0.1 66.7 1.6 18.7 5.8 31.6 18.6 37.4 37.3 1.5 4.9 1.5 9.6 1.5 66.7 0 68.7 0.3 65.2-6.4 78.2-4.2 8.3-13.6 17.6-21.4 21.3-13.1 6.4-9 6-75.6 6.3-47.7 0.1-61.2-0.1-65.4-1.1z"/></svg>
