<svg version="1.2" xmlns="http://www.w3.org/2000/svg" viewBox="0 0 512 512"><style></style><path  d="m142.9 369.1c-17.5-17.5-30.1-38-37.8-59.8-5.9-16.7-24.2-25.4-40.8-19.5-16.6 5.9-25.4 24.2-19.5 40.8 10.8 30.7 28.4 59.4 52.8 83.8 87.2 87.2 228.3 87.5 315.8 1l41.6 41.6c6.9 6.9 17.2 8.9 26.2 5.2 9-3.7 14.8-12.5 14.8-22.2v-128c0-13.3-10.7-24-24-24h-8.4-119.6c-9.7 0-18.5 5.8-22.2 14.8-3.7 9-1.7 19.3 5.2 26.2l41.1 41.1c-62.6 61.5-163.1 61.2-225.3-1zm-126.9-169.1c0 13.3 10.7 24 24 24h7.6 0.7 119.7c9.7 0 18.5-5.8 22.2-14.8 3.7-9 1.7-19.3-5.2-26.2l-41.1-41.1c62.6-61.5 163.1-61.2 225.3 1 17.5 17.5 30.1 38 37.8 59.8 5.9 16.7 24.2 25.4 40.8 19.5 16.6-5.9 25.4-24.2 19.5-40.8-10.8-30.6-28.4-59.3-52.9-83.8-87.2-87.2-228.3-87.5-315.8-1l-41.6-41.6c-6.9-6.9-17.2-8.9-26.2-5.2-9 3.7-14.8 12.5-14.8 22.2v119.6 0.7 7.6z"/></svg>
