<svg xmlns="http://www.w3.org/2000/svg" viewBox="0 0 512 512"><style></style><path  d="m32.2 509.3c-27.2-9.8-39.5-38.9-27.7-65.5 2.6-5.9 13.6-17.9 46.9-51.4l43.6-43.5 0.8-25.3c0.4-13.8 1.4-26.4 2.2-28 2.9-6.1 9.3-7.6 33.9-7.6h23.4l27.5-26.9c20.2-19.7 29.7-27.8 36.2-30.9 4.8-2.4 49.2-16 98.5-30.2 71.7-20.7 90.4-26.6 93.6-29.8 4-3.8 4-4.5 4.5-32.2 0.8-40.8-0.1-42.1-30.1-42.1-17.4 0-17.9 0.2-21.3 4.3-10.9 13.3-20 21-28.8 24.4-18.2 6.7-33.3 3.3-47.7-10.9-17-16.8-19.8-34.8-9.4-57.8 10.7-23.5 23.5-37.9 41.9-47.1 17.1-8.6 22.9-9.3 78.6-8.6 46.6 0.6 50.6 0.9 59.4 4.1 13.6 5 22.1 10.5 31.2 19.7 9.3 9.5 18.4 27.3 20.8 40.5 1.2 5.6 1.8 33.7 1.8 68.6 0 66.6-1 74.1-10.6 90.4-10.4 17.3-25.3 29.6-43.4 35.9-5.1 1.7-10.7 4.3-12.6 5.4-1.8 1.1-8.2 10.9-14.1 21.5-5.9 10.7-12.3 20.5-14.2 21.7-6.6 4.7-13.6 2.9-33.8-8-10.6-5.7-20.3-10.7-21.9-11.2-1.5-0.4-23.9 5.3-49.8 12.8l-46.9 13.6-94.5 94.5c-102.8 102.6-100.4 100.7-119.9 102-6.9 0.3-12.3-0.3-18.1-2.4z"/></svg>
