<svg version="1.2" xmlns="http://www.w3.org/2000/svg" viewBox="0 0 512 512"><style></style><path  d="m33.7 510.6c-4.9-2.5-31.9-30-33.1-33.8-1.2-3.7-0.6-8.9 1.4-12 0.8-1.2 14.3-15.3 30.1-31.4l28.7-29.3-14.2-31.4c-8-17.6-14.4-32.8-14.6-34.6-0.7-6 1.9-10.2 13.3-21.4 10.3-10.2 13.8-12.6 18.7-12.6 4.4 0 8.7 3 20.6 14.3l11.2 10.7 25.5-24.9 25.3-24.8 42.5 42.2c23.4 23.2 42.7 42.6 42.9 43 0.3 0.4-10.7 12.3-24.3 26.2l-24.8 25.4 10.7 11.2c11.4 12 14.3 16.2 14.3 20.6 0 5.1-2.8 9.2-14.3 20.5-11.8 11.6-13.3 12.4-20.1 11.5-1.6-0.2-17-6.7-34.3-14.6l-31.4-14.2-29.2 28.7c-16.1 15.8-30.7 29.5-32.6 30.6-4.1 2.1-8.1 2.2-12.3 0.1z"/><path  d="m466.4 511c-1.8-0.8-14-12.5-32.1-30.5l-29.3-29.3-11.5 5.2c-54 24.4-52.6 23.8-56.9 23.8-2.3 0-5.2-0.6-6.9-1.5-4.3-2.2-22.9-21.4-24.5-25.2-1.6-3.9-1.6-6.9-0.1-10.7 1.8-4.1 132.3-134.8 136.9-137.1 3.9-1.9 7.4-2 11.3-0.4 3.8 1.6 23.1 20.5 25.2 24.8 3.2 6.1 2.4 8.9-11.6 40.1-7.1 15.4-13.5 29.5-14.4 31.4l-1.6 3.5 28.8 28.9c16.5 16.5 29.7 30.4 30.6 32.2 1.9 3.6 2.1 5.8 0.8 10.4-0.7 2.6-3.7 6.1-15.3 17.9-17.8 17.9-21.4 19.9-29.4 16.5z"/><path  d="m163.8 249.9c-141.3-141.3-143.1-143.1-146-149.3-2.7-5.5-3.9-10-10.6-43.6-5.3-26.5-7.4-38.6-7.2-41.6 0.6-7.6 7.2-14.5 14.8-15.2 2.7-0.2 15.2 2 41.6 7.2 34 6.8 38.4 7.9 44 10.6 6.1 3 7.9 4.7 149.2 146l143.1 142.9-21.4 21.6c-11.8 11.9-31.1 31.3-43 43l-21.6 21.5z"/><path  d="m322.1 189.8l-43-42.9 63-62.9c61.2-61.2 63.2-63.1 69.2-66 5.6-2.7 10-3.8 43.6-10.5 20.6-4.1 38.9-7.5 40.7-7.5 8.4 0.1 16.4 8.1 16.4 16.3 0 1.6-3.4 20-7.6 40.9-9.7 49.1-7.8 44.7-29.9 67.1-9.1 9.2-37.4 37.4-63 62.6l-46.4 45.9z"/></svg>
