<svg version="1.2" xmlns="http://www.w3.org/2000/svg" viewBox="0 0 512 512"><style></style><path  d="m243.2 512.1c-46.5-3.2-83.1-14.4-119.1-36.3-37-22.4-65.4-50.9-87.8-87.8-19.6-32.2-31-66.6-35.3-106.2-1.3-12.5-1.3-43.1 0-54.1 5.2-42.2 19.3-80.1 43.1-115.8 11.2-16.9 30.2-38.4 38-43.1 13.6-8.1 28.9-6.1 39.4 5.3 7.5 8.1 10.6 17.8 8.7 27.4-1.6 8.1-4.5 12.9-13.5 22.6-18.9 20.4-31.4 40.1-40.3 63.7-8.5 22.7-13.6 54-12.4 75.9 2.4 41.6 15.3 77.9 38.6 108.8 7.9 10.6 26.4 29 36.8 37 46.7 35.1 107.1 47 165 32.5 34.4-8.7 61.9-24.4 87.5-49.9 16.9-16.9 27.6-31.9 37.2-52.2 20.9-43.9 24.6-96.6 10-143.3-12.7-40.3-41.5-77.9-77.7-101.2-18.9-12.2-40.6-21.1-63.9-26.5-4.7-1.1-8.7-1.9-9-1.9-0.2 0-0.4 7.5-0.4 16.6 0 19.3-0.9 23.8-5.5 30.7-3.4 5-9.5 9.8-14.6 11.7-5.7 2-14.7 2.3-20.8 0.8-9.6-2.4-17.9-9.9-21.3-19.2-1.5-3.9-1.6-6.5-1.6-43.8 0-37.1 0.1-40 1.6-43.8 3-8.3 9.2-14.7 17.9-18.4 6.7-2.8 33.7-1.8 56.3 2.2 69.3 12.1 130.2 51.7 168.6 109.7 29.4 44.1 43.2 89.8 43.3 142.2 0 46-10.6 86.9-32.8 126.3-32.1 57-86.4 100.6-148.7 119.4-26.9 8.1-62.2 12.4-87.3 10.7z"/><path  d="m249.1 279.1c-1.8-0.6-4.9-2.2-6.8-3.6-1.9-1.3-22.1-21.1-44.9-44-36.3-36.4-41.6-42.1-43.2-45.9-2.7-6.3-2.9-11.5-0.9-16.9 2.7-6.9 5.6-10.4 11.4-13.6 4.4-2.4 5.8-2.8 10.7-2.8 10.9 0 9.4-1.2 56.7 46 47.6 47.4 47.5 47.2 47.5 57.4 0 7.6-3.6 15.3-8.9 19.1-6.9 5-14.6 6.4-21.6 4.3z"/></svg>
