<svg version="1.2" xmlns="http://www.w3.org/2000/svg" viewBox="0 0 512 398"><style></style><path fill-rule="evenodd" d="m87.2 397.7c-4.1-0.7-10.5-3.2-13.5-5.2-4.7-3.1-11-9.6-13.1-13.5-3.7-6.7-4-10.2-4-39.3v-26.9h-16.2c-18.7 0-22.5-0.7-28.7-4.9-8.1-5.5-11.7-12.9-11.7-23.6 0-13 5.7-21.7 17.3-26.7 3.3-1.4 5.2-1.4 150.7-1.8l147.3-0.4 6-1.6c23.5-6.2 40.3-23.2 46.5-46.5 1.4-5.6 1.5-8.1 2-46.9 0.4-39 0.5-41.2 2-46.6 4.3-16 15.1-29.4 29.6-36.6 8.8-4.4 15.4-5.9 26-5.9 23.2-0.1 44 8.6 60.2 25.2 18 18.4 25.4 39.7 24.3 70.9-0.2 8.1-0.8 12.8-1.8 16.9-5.3 20.1-20.8 35.6-41 41.1-5.1 1.3-8 1.5-26.8 1.8l-21.1 0.3-1.6 4.7c-2.5 7.3-8.8 19.6-14.1 27.5-5.6 8.2-17.9 21.5-26.1 27.8-18.6 14.4-38 22.1-62.5 24.9l-4.1 0.4v26.9c0 34.4-0.5 36.8-9.4 46.2-5 5.2-9.3 8.1-15.2 10.3-4.1 1.5-4.9 1.6-32.3 1.6-27.4 0-28.2-0.1-32.3-1.6-5.9-2.2-10.2-5.1-15.2-10.3-9-9.4-9.5-11.8-9.5-46.2v-26.9h-28.4v26.9c0 34.4-0.5 36.8-9.5 46.2-5 5.2-9.3 8.1-15.2 10.3-4 1.5-5.2 1.5-30.5 1.7-14.4 0.1-27.1 0-28.1-0.2zm358.9-228.4c9.1-3.1 12-15.3 5.4-22.7-2.1-2.5-7.1-4.7-10.6-4.7-3.4 0-8.4 2.2-10.6 4.7-3.5 4-4.4 9.1-2.5 14.7 2.5 7.4 10.2 10.7 18.3 8z"/><path  d="m53.6 226.2c-12.2-2.9-21.7-12.6-24.5-25-1-4.7-1.1-8.8-0.8-32.1 0.3-22.8 0.6-28.2 2-36.1 3.7-22.7 10.4-41.2 21.4-59 11.5-18.5 32.8-39.6 51.5-51.1 36.2-22.2 80.4-28.7 121.7-17.6 27.8 7.4 50.2 20.6 71.3 42.1 24.3 24.9 37.3 50.6 43 85.6 1.3 7.9 1.6 13.3 1.9 36.1 0.3 23.3 0.2 27.4-0.8 32.1-2.8 12.6-12.2 22.1-24.8 25.1-6.5 1.5-255.6 1.5-261.9-0.1z"/></svg>
